<?xml version="1.0" standalone="yes"?>
<svg xmlns="http://www.w3.org/2000/svg" width="920" height="512">
<path style="fill:#fb8c00; stroke:none;" d="M284 281C301.171 275.403 317.813 268.272 335 262.67C374.969 249.642 419.726 239.188 462 241.039C501.758 242.78 541.578 249.758 580 260.151C591.712 263.319 603.568 266.627 615 270.692C622.18 273.245 629.441 276.868 637 278C638.735 264.562 642.426 251.351 644.75 238C645.39 234.326 648.233 226.999 645.958 223.649C642.682 218.825 631.255 216.558 626 214.576C605.998 207.033 584.971 202.311 564 198.389C493.057 185.119 415.554 181.995 345 199.13C327.619 203.351 310.317 208.331 294 215.769C288.89 218.099 281.363 220.241 277.607 224.634C274.705 228.029 277.022 235.942 277.576 240C279.394 253.317 279.259 268.345 284 281M272 259C256.478 264.265 241.225 268.67 226 275L226 277C234.628 281.545 243.173 287.527 253 289C247.057 300.644 240.012 309.861 237 323C242.583 319.558 247.674 316.04 254 314.029C268.977 309.267 284.778 310.08 300 306.996C305.152 305.952 318.599 303.085 316.288 295.109C315.045 290.821 309.506 290.852 306 291.465C298.984 292.693 288.905 301.188 282.108 296.397C278.43 293.803 277.384 289.154 276.615 285C275.113 276.889 275.883 266.304 272 259M648 260C646.136 269.61 644.757 279.522 642.334 289C641.427 292.549 639.871 297.112 635.957 298.303C629.336 300.317 619.854 292.196 613 291.304C609.917 290.903 605.751 291.091 604.072 294.228C600.1 301.649 613.291 305.52 618 306.575C633.819 310.12 650.381 309.063 666 314.029C672.326 316.039 677.418 319.558 683 323C680.135 310.502 674.574 300.227 667 290C676.46 286.33 685.077 281.749 694 277L694 275C679.55 268.992 663.934 260.695 648 260M599 271C598.884 276.605 598.299 282.548 597 288C603.479 285.978 608.522 285.619 615 288.066C619.745 289.857 625.663 294.252 630.956 292.243C636.014 290.323 636.945 284.527 631.941 282.108C621.953 277.279 609.796 273.498 599 271M284 286C288.561 299.093 301.316 288.367 310 286.518C314.663 285.525 318.58 286.621 323 288C321.844 283.146 321.393 277.975 321 273C308.25 275.951 296.701 282.99 284 286z"/>
</svg>
